{"title":"Captain.Z.and.the.Terror.of.Leviathan.2014.BRRip.XviD.MP3-RARBG","uid":12112815,"size":1070996216,"categoryP":"video","categoryS":"movies","magnet":"?xt=urn:btih:037b60c42183f3f93a3b066ff7de75a1ac85e809&amp;dn=Captain.Z.and.the.Terror.of.Leviathan.2014.BRRip.XviD.MP3-RARBG&amp;tr=udp%3A%2F%2Ftracker.openbittorrent.com%3A80&amp;tr=udp%3A%2F%2Fopen.demonii.com%3A1337&amp;tr=udp%3A%2F%2Ftracker.coppersurfer.tk%3A6969&amp;tr=udp%3A%2F%2Fexodus.desync.com%3A6969","seeders":1,"leechers":0,"uploader":null,"files":4,"time":1436575055,"description":"Video\nID                                       : 0\nFormat                                   : MPEG-4 Visual\nFormat profile                           : Simple@L5\nFormat settings, BVOP                    : No\nFormat settings, QPel                    : No\nFormat settings, GMC                     : No warppoints\nFormat settings, Matrix                  : Default (H.263)\nCodec ID                                 : XVID\nCodec ID/Hint                            : XviD\nDuration                                 : 1h 19mn\nBit rate                                 : 1 594 Kbps\nWidth                                    : 720 pixels\nHeight                                   : 306 pixels\nDisplay aspect ratio                     : 2.35:1\nFrame rate                               : 24.000 fps\nColor space                              : YUV\nChroma subsampling                       : 4:2:0\nBit depth                                : 8 bits\nScan type                                : Progressive\nCompression mode                         : Lossy\nBits/(Pixel*Frame)                       : 0.301\nStream size                              : 904 MiB (89%)\nTitle                                    : RARBG.COM - Captain.Z.and.the.Terror.of.Leviathan.2014.BRRip.XviD.MP3-RARBG\nWriting library                          : Lavc56.19.100\n\nAudio\nID                                       : 1\nFormat                                   : MPEG Audio\nFormat version                           : Version 1\nFormat profile                           : Layer 3\nMode                                     : Joint stereo\nMode extension                           : MS Stereo\nCodec ID                                 : 55\nCodec ID/Hint                            : MP3\nDuration                                 : 1h 19mn\nBit rate mode                            : Constant\nBit rate                                 : 192 Kbps\nChannel(s)                               : 2 channels\nSampling rate                            : 48.0 KHz\nCompression mode                         : Lossy\nStream size                              : 109 MiB (11%)\nAlignment                                : Aligned on interleaves\nInterleave, duration                     : 24 ms (0.58 video frame)\nInterleave, preload duration             : 24 ms\nTitle                                    : RARBG.COM - Captain.Z.and.the.Terror.of.Leviathan.2014.BRRip.XviD.MP3-RARBG\nWriting library                          : LAME3.99.5","torrent":{"xt":"urn:btih:037b60c42183f3f93a3b066ff7de75a1ac85e809","amp;dn":"Captain.Z.and.the.Terror.of.Leviathan.2014.BRRip.XviD.MP3-RARBG","amp;tr":["udp%3A%2F%2Ftracker.openbittorrent.com%3A80","udp%3A%2F%2Fopen.demonii.com%3A1337","udp%3A%2F%2Ftracker.coppersurfer.tk%3A6969","udp%3A%2F%2Fexodus.desync.com%3A6969"],"infoHash":"037b60c42183f3f93a3b066ff7de75a1ac85e809","infoHashBuffer":{"type":"Buffer","data":[3,123,96,196,33,131,243,249,58,59,6,111,247,222,117,161,172,133,232,9]},"announce":[],"urlList":[]}}